<svg width="64" height="64" viewBox="0 0 64 64" xmlns="http://www.w3.org/2000/svg" fill="none">
  <!-- Gear shape -->
  <path fill="#8d0444" d="M36.7 8h-9.4l-1 4.6a16.7 16.7 0 0 0-3.6 2.1l-4.4-1.8-6.6 6.6 1.8 4.4a16.7 16.7 0 0 0-2.1 3.6L8 27.9v9.4l4.6 1a16.7 16.7 0 0 0 2.1 3.6l-1.8 4.4 6.6 6.6 4.4-1.8a16.7 16.7 0 0 0 3.6 2.1l1 4.6h9.4l1-4.6a16.7 16.7 0 0 0 3.6-2.1l4.4 1.8 6.6-6.6-1.8-4.4a16.7 16.7 0 0 0 2.1-3.6l4.6-1v-9.4l-4.6-1a16.7 16.7 0 0 0-2.1-3.6l1.8-4.4-6.6-6.6-4.4 1.8a16.7 16.7 0 0 0-3.6-2.1L36.7 8ZM32 42a10 10 0 1 1 0-20 10 10 0 0 1 0 20Z"/>
  
  <!-- Center highlight -->
  <circle cx="32" cy="32" r="4" fill="#ddc52c"/>
</svg>
